<svg id="Layer_1" data-name="Layer 1" xmlns="http://www.w3.org/2000/svg" viewBox="0 0 491.37 96.51"><defs><style>.cls-1{fill:#fff;}</style></defs><title>Untitled-1</title><g id="white_logo" data-name="white logo"><path class="cls-1" d="M569.19,359.5h8.64v19.72h3.8l12-19.72h10.5l-14.43,23.66,14.43,23.52h-10.5l-12-19.46h-3.74v19.46h-8.7Z" transform="translate(-438.08 -336.04)"/><path class="cls-1" d="M618.62,372.2c9.93,0,14.5,1.09,14.5,12.44,0,6.12-3.35,8.63-9.53,8.63h-10.9c0,6.13,2.32,6.51,7.22,6.51a66.11,66.11,0,0,0,12.57-.71v6.13C627.65,407,620.3,407,615,407c-8.7,0-11.28-5-11.28-17.59C603.67,374.71,607.8,372.2,618.62,372.2Zm2.65,14.57c1.87,0,2.83-.91,2.83-2.58,0-4.32-.64-5.09-5-5.09-4.77,0-6.51.25-6.45,7.67Z" transform="translate(-438.08 -336.04)"/><path class="cls-1" d="M638,372.46h7.22l1.8,3.67c2.9-2.13,5.61-4.25,10.83-4.25,8,0,10.25,5.47,10.25,12v22.82h-9V383.74c0-3.36-1.55-4.64-3.81-4.64-3.61,0-5.6,1-8.25,3v24.62h-9Z" transform="translate(-438.08 -336.04)"/><path class="cls-1" d="M671.47,374.26l5.54-1.87,1.49-9.54H686v9.54h7.66v6.9H686V393c0,5,1.16,6.12,2.9,6.76,0,0,3.86,1.36,4.31,1.36v5.54h-7.86c-5,0-8.38-3.16-8.38-12.25V379.29h-5.54Z" transform="translate(-438.08 -336.04)"/><path class="cls-1" d="M713.1,372.13c11.8,0,15.6,4.32,15.6,17.92,0,12.7-3.61,16.95-15.6,16.95-11.79,0-15.59-4.7-15.59-16.95C697.51,376.07,701.57,372.13,713.1,372.13Zm0,27.59c5.1,0,6.58-.65,6.58-9.67,0-9.6-1.16-10.7-6.58-10.7s-6.57,1.1-6.57,10.7C706.53,398.88,708.33,399.72,713.1,399.72Z" transform="translate(-438.08 -336.04)"/><path class="cls-1" d="M734.11,372.46h7.22l1.81,3.67c2.9-2.13,5.6-4.25,10.82-4.25,8,0,10.25,5.47,10.25,12v22.82h-9V383.74c0-3.36-1.55-4.64-3.8-4.64a12,12,0,0,0-8.25,3v24.62h-9Z" transform="translate(-438.08 -336.04)"/><path class="cls-1" d="M789,359.18c11.15,0,18.37,2.13,18.37,24.23,0,20.82-6.77,23.53-18.37,23.53s-18.5-2.07-18.5-23.53C770.52,361.31,778.19,359.18,789,359.18Zm0,42c9.34,0,12.44-2.64,12.44-17.79,0-18-4.13-18.49-12.44-18.49s-12.57.38-12.57,18.49C776.45,399,779.42,401.2,789,401.2Z" transform="translate(-438.08 -336.04)"/><path class="cls-1" d="M813.64,356.22h5.93v37.89c0,5.42,1.41,6.64,3.48,7.22,0,0,4.89,1.35,5.35,1.35v4h-6.13c-5.15,0-8.63-3.09-8.63-12.18Z" transform="translate(-438.08 -336.04)"/><path class="cls-1" d="M830.65,380.84c0-5.29,2.26-8.71,8.89-8.71,4.26,0,14.06.58,17.21,1.23v4.25H840.32c-3.61,0-3.74,1.36-3.74,3.35v2.58c0,3.23,1.61,3.29,3.74,3.29h9.6c5.87,0,8.57,3.61,8.57,8.51v3.22c0,7-4.25,8.44-8.38,8.44s-15.59-.77-18-1.42v-4.12h17.27a2.82,2.82,0,0,0,3.22-3.09v-2.71c0-2.06-.64-3.22-3.22-3.22h-9.6c-6.06,0-9.09-2-9.09-8.64Z" transform="translate(-438.08 -336.04)"/><path class="cls-1" d="M879.12,372.13c11.6,0,15.21,4.32,15.21,17.92,0,12.7-3.55,16.95-15.21,16.95s-15.21-4.7-15.21-16.95C863.91,376.07,867.77,372.13,879.12,372.13Zm0,29.39c6.44,0,9.28-.83,9.28-11.47,0-11.53-2.32-12.5-9.28-12.5-6.71,0-9.29,1-9.29,12.5C869.83,400.75,873,401.52,879.12,401.52Z" transform="translate(-438.08 -336.04)"/><path class="cls-1" d="M900.9,372.46h4.45l1.48,3.93c3.67-2.26,7-4.51,12.18-4.51,7.09,0,10.44,5.35,10.44,11.21v23.59h-5.93V383.09c0-4-2.26-5.8-5.22-5.8-4.77,0-7.15,1.23-11.47,3.48v25.91H900.9Z" transform="translate(-438.08 -336.04)"/><path class="cls-1" d="M490.85,381.81,495.16,336H438.08v96.51h22.78l3.75-6.52h0ZM444.6,426V342.56h26.56L463,426Z" transform="translate(-438.08 -336.04)"/><polygon class="cls-1" points="85.41 0 51.84 55.68 51.85 55.6 27.58 96.51 51.27 96.51 75.53 55.6 75.53 55.68 102.22 10.94 102.22 89.99 88.09 89.99 68.14 74.29 57.56 92.12 63.82 96.51 77.31 96.51 96.39 96.51 108.74 96.51 108.74 0 85.41 0"/></g></svg>